<svg width="24" height="24" viewBox="0 0 24 24" fill="none" xmlns="http://www.w3.org/2000/svg">
<mask id="mask0_2009_658" style="mask-type:alpha" maskUnits="userSpaceOnUse" x="0" y="0" width="24" height="24">
<rect width="24" height="24" fill="#D9D9D9"/>
</mask>
<g mask="url(#mask0_2009_658)">
<path d="M11.3 10.3472C10.587 10.3472 9.88704 10.4477 9.2 10.6486C8.51296 10.8496 7.87778 11.1509 7.29444 11.5528L8.11111 18.9028H15.8889L16.7444 11.125H16.2C15.7074 11.125 15.2602 11.0894 14.8583 11.0181C14.4565 10.9468 13.9056 10.8074 13.2056 10.6C12.9074 10.5093 12.5963 10.4445 12.2722 10.4056C11.9481 10.3667 11.6241 10.3472 11.3 10.3472ZM7.1 9.86113C7.76111 9.51113 8.44491 9.24539 9.15139 9.06391C9.85787 8.88243 10.5806 8.79169 11.3194 8.79169C11.7083 8.79169 12.094 8.81762 12.4764 8.86947C12.8588 8.92132 13.238 8.9991 13.6139 9.1028C14.262 9.28428 14.7579 9.40743 15.1014 9.47225C15.4449 9.53706 15.8111 9.56947 16.2 9.56947H16.9194L17.25 6.45836H6.75L7.1 9.86113ZM8.09167 20.4584C7.68981 20.4584 7.34306 20.3287 7.05139 20.0695C6.75972 19.8102 6.59444 19.4797 6.55556 19.0778L5 4.9028H19L17.4444 19.0778C17.4056 19.4797 17.2403 19.8102 16.9486 20.0695C16.6569 20.3287 16.3102 20.4584 15.9083 20.4584H8.09167Z" fill="#1C1B1F"/>
</g>
</svg>
