<svg width="24" height="24" viewBox="0 0 24 24" fill="none" xmlns="http://www.w3.org/2000/svg">
<mask id="mask0_2009_624" style="mask-type:alpha" maskUnits="userSpaceOnUse" x="0" y="0" width="24" height="24">
<rect width="24" height="24" fill="#D9D9D9"/>
</mask>
<g mask="url(#mask0_2009_624)">
<path d="M12 21.5C9.78333 21.5 7.89583 20.7333 6.3375 19.2C4.77917 17.6667 4 15.8 4 13.6C4 12.55 4.20417 11.5458 4.6125 10.5875C5.02083 9.62917 5.6 8.78333 6.35 8.05L12 2.5L17.65 8.05C18.4 8.78333 18.9792 9.62917 19.3875 10.5875C19.7958 11.5458 20 12.55 20 13.6C20 15.8 19.2208 17.6667 17.6625 19.2C16.1042 20.7333 14.2167 21.5 12 21.5Z" fill="#1C1B1F"/>
<path d="M8.24788 13.9934C8.04334 13.9934 7.8672 13.9451 7.71948 13.8485C7.57175 13.7519 7.45811 13.6188 7.37857 13.4493C7.29902 13.2798 7.25925 13.0862 7.25925 12.8684C7.25925 12.6468 7.29997 12.4512 7.38141 12.2817C7.46379 12.1113 7.57838 11.9782 7.72516 11.8826C7.87288 11.786 8.04523 11.7377 8.2422 11.7377C8.39561 11.7377 8.53387 11.7661 8.65698 11.8229C8.78008 11.8797 8.88093 11.9593 8.95953 12.0615C9.03813 12.1638 9.0869 12.2831 9.10584 12.4195H8.77061C8.74504 12.3201 8.68823 12.232 8.60016 12.1553C8.51304 12.0776 8.39561 12.0388 8.24788 12.0388C8.1172 12.0388 8.00262 12.0729 7.90413 12.1411C7.8066 12.2083 7.73037 12.3035 7.67544 12.4266C7.62146 12.5488 7.59448 12.6922 7.59448 12.857C7.59448 13.0256 7.62099 13.1723 7.67402 13.2973C7.728 13.4223 7.80376 13.5194 7.90129 13.5885C7.99978 13.6577 8.11531 13.6922 8.24788 13.6922C8.33501 13.6922 8.41408 13.6771 8.4851 13.6468C8.55612 13.6165 8.61626 13.5729 8.6655 13.5161C8.71474 13.4593 8.74978 13.3911 8.77061 13.3115H9.10584C9.0869 13.4403 9.04002 13.5563 8.96521 13.6596C8.89135 13.7618 8.79334 13.8433 8.67118 13.9039C8.54997 13.9635 8.40887 13.9934 8.24788 13.9934ZM10.4823 13.9934C10.2853 13.9934 10.1125 13.9465 9.96379 13.8527C9.81607 13.759 9.70054 13.6278 9.6172 13.4593C9.53482 13.2907 9.49362 13.0937 9.49362 12.8684C9.49362 12.6411 9.53482 12.4427 9.6172 12.2732C9.70054 12.1037 9.81607 11.9721 9.96379 11.8783C10.1125 11.7846 10.2853 11.7377 10.4823 11.7377C10.6792 11.7377 10.8516 11.7846 10.9993 11.8783C11.148 11.9721 11.2635 12.1037 11.3459 12.2732C11.4292 12.4427 11.4709 12.6411 11.4709 12.8684C11.4709 13.0937 11.4292 13.2907 11.3459 13.4593C11.2635 13.6278 11.148 13.759 10.9993 13.8527C10.8516 13.9465 10.6792 13.9934 10.4823 13.9934ZM10.4823 13.6922C10.6319 13.6922 10.755 13.6539 10.8516 13.5772C10.9482 13.5005 11.0197 13.3996 11.0661 13.2746C11.1125 13.1496 11.1357 13.0142 11.1357 12.8684C11.1357 12.7225 11.1125 12.5866 11.0661 12.4607C11.0197 12.3347 10.9482 12.2329 10.8516 12.1553C10.755 12.0776 10.6319 12.0388 10.4823 12.0388C10.3326 12.0388 10.2095 12.0776 10.1129 12.1553C10.0164 12.2329 9.94485 12.3347 9.89845 12.4607C9.85205 12.5866 9.82885 12.7225 9.82885 12.8684C9.82885 13.0142 9.85205 13.1496 9.89845 13.2746C9.94485 13.3996 10.0164 13.5005 10.1129 13.5772C10.2095 13.6539 10.3326 13.6922 10.4823 13.6922ZM12.3178 11.0388V13.9479H11.9826V11.0388H12.3178ZM13.8182 13.9934C13.6212 13.9934 13.4484 13.9465 13.2997 13.8527C13.152 13.759 13.0365 13.6278 12.9531 13.4593C12.8708 13.2907 12.8296 13.0937 12.8296 12.8684C12.8296 12.6411 12.8708 12.4427 12.9531 12.2732C13.0365 12.1037 13.152 11.9721 13.2997 11.8783C13.4484 11.7846 13.6212 11.7377 13.8182 11.7377C14.0152 11.7377 14.1875 11.7846 14.3352 11.8783C14.4839 11.9721 14.5994 12.1037 14.6818 12.2732C14.7652 12.4427 14.8068 12.6411 14.8068 12.8684C14.8068 13.0937 14.7652 13.2907 14.6818 13.4593C14.5994 13.6278 14.4839 13.759 14.3352 13.8527C14.1875 13.9465 14.0152 13.9934 13.8182 13.9934ZM13.8182 13.6922C13.9678 13.6922 14.0909 13.6539 14.1875 13.5772C14.2841 13.5005 14.3556 13.3996 14.402 13.2746C14.4484 13.1496 14.4716 13.0142 14.4716 12.8684C14.4716 12.7225 14.4484 12.5866 14.402 12.4607C14.3556 12.3347 14.2841 12.2329 14.1875 12.1553C14.0909 12.0776 13.9678 12.0388 13.8182 12.0388C13.6686 12.0388 13.5455 12.0776 13.4489 12.1553C13.3523 12.2329 13.2808 12.3347 13.2344 12.4607C13.188 12.5866 13.1648 12.7225 13.1648 12.8684C13.1648 13.0142 13.188 13.1496 13.2344 13.2746C13.2808 13.3996 13.3523 13.5005 13.4489 13.5772C13.5455 13.6539 13.6686 13.6922 13.8182 13.6922ZM15.3186 13.9479V11.7661H15.6424V12.0956H15.6651C15.7049 11.9877 15.7769 11.9001 15.8811 11.8328C15.9852 11.7656 16.1026 11.732 16.2333 11.732C16.2579 11.732 16.2887 11.7325 16.3257 11.7334C16.3626 11.7344 16.3905 11.7358 16.4095 11.7377V12.0786C16.3981 12.0757 16.3721 12.0715 16.3313 12.0658C16.2916 12.0592 16.2494 12.0559 16.2049 12.0559C16.0989 12.0559 16.0042 12.0781 15.9208 12.1226C15.8384 12.1662 15.7731 12.2268 15.7248 12.3044C15.6775 12.3811 15.6538 12.4687 15.6538 12.5672V13.9479H15.3186Z" fill="white"/>
</g>
</svg>
