<svg width="24" height="24" viewBox="0 0 24 24" fill="none" xmlns="http://www.w3.org/2000/svg">
<mask id="mask0_2009_608" style="mask-type:alpha" maskUnits="userSpaceOnUse" x="0" y="0" width="24" height="24">
<rect width="24" height="24" fill="#D9D9D9"/>
</mask>
<g mask="url(#mask0_2009_608)">
<path d="M13.1073 19.9882C13.0221 20.0592 12.9334 20.116 12.8411 20.1586C12.7488 20.2012 12.6459 20.2225 12.5323 20.2225C12.4188 20.2225 12.3052 20.1976 12.1916 20.1479C12.0781 20.0983 11.9787 20.0308 11.8935 19.9457C11.3115 19.321 10.8821 18.6822 10.6052 18.0292C10.3284 17.3762 10.19 16.6877 10.19 15.9637C10.19 15.4384 10.2681 14.8848 10.4242 14.3027C10.5804 13.7207 10.8501 12.9683 11.2334 12.0456C11.5599 11.2364 11.7871 10.6153 11.9148 10.1823C12.0426 9.74934 12.1065 9.3483 12.1065 8.97921C12.1065 8.49654 12 8.04582 11.7871 7.62703C11.5741 7.20825 11.2405 6.78592 10.7862 6.36004C10.7011 6.27486 10.6336 6.17549 10.5839 6.06192C10.5343 5.94835 10.5094 5.83478 10.5094 5.72122C10.5094 5.60765 10.5307 5.50473 10.5733 5.41245C10.6159 5.32018 10.6727 5.23145 10.7436 5.14628C10.8288 5.0611 10.9246 4.99722 11.0311 4.95463C11.1376 4.91204 11.2476 4.89075 11.3612 4.89075C11.4747 4.89075 11.5812 4.91204 11.6806 4.95463C11.78 4.99722 11.8722 5.054 11.9574 5.12498C12.582 5.70702 13.047 6.31745 13.3522 6.95627C13.6574 7.59509 13.81 8.26941 13.81 8.97921C13.81 9.47607 13.7355 9.99777 13.5864 10.5443C13.4373 11.0909 13.1783 11.8042 12.8092 12.6844C12.4543 13.5361 12.2129 14.1892 12.0852 14.6434C11.9574 15.0977 11.8935 15.5307 11.8935 15.9424C11.8935 16.4392 11.9964 16.9183 12.2023 17.3797C12.4081 17.8411 12.724 18.306 13.1499 18.7745C13.2209 18.8597 13.2776 18.9519 13.3202 19.0513C13.3628 19.1507 13.3841 19.2571 13.3841 19.3707C13.3841 19.4843 13.3628 19.5943 13.3202 19.7008C13.2776 19.8072 13.2067 19.9031 13.1073 19.9882ZM17.2596 19.9882C17.1745 20.0592 17.0857 20.116 16.9935 20.1586C16.9012 20.2012 16.7983 20.2225 16.6847 20.2225C16.5711 20.2225 16.4576 20.1976 16.344 20.1479C16.2304 20.0983 16.131 20.0308 16.0459 19.9457C15.4638 19.321 15.0344 18.6858 14.7576 18.0398C14.4808 17.3939 14.3423 16.709 14.3423 15.985C14.3423 15.4597 14.4204 14.899 14.5766 14.3027C14.7327 13.7065 15.0025 12.9541 15.3858 12.0456C15.7123 11.2364 15.9394 10.6189 16.0672 10.193C16.1949 9.76709 16.2588 9.3696 16.2588 9.0005C16.2588 8.51784 16.1523 8.06001 15.9394 7.62703C15.7265 7.19405 15.3928 6.77172 14.9386 6.36004C14.8534 6.27486 14.7895 6.17904 14.7469 6.07257C14.7043 5.9661 14.683 5.85608 14.683 5.74251C14.683 5.62894 14.7008 5.52602 14.7363 5.43375C14.7718 5.34147 14.825 5.25275 14.896 5.16757C14.9812 5.08239 15.0805 5.01496 15.1941 4.96528C15.3077 4.91559 15.4212 4.89075 15.5348 4.89075C15.6484 4.89075 15.7513 4.91204 15.8436 4.95463C15.9358 4.99722 16.0246 5.054 16.1097 5.12498C16.7344 5.70702 17.1993 6.31745 17.5045 6.95627C17.8097 7.59509 17.9623 8.26941 17.9623 8.97921C17.9623 9.47607 17.8878 9.99777 17.7387 10.5443C17.5897 11.0909 17.3306 11.8113 16.9615 12.7057C16.6066 13.5574 16.3653 14.2104 16.2375 14.6647C16.1098 15.119 16.0459 15.5449 16.0459 15.9424C16.0459 16.4392 16.1523 16.9254 16.3653 17.401C16.5782 17.8766 16.8976 18.3415 17.3235 18.7958C17.3945 18.8809 17.4477 18.9732 17.4832 19.0726C17.5187 19.172 17.5365 19.2713 17.5365 19.3707C17.5365 19.4843 17.5152 19.5978 17.4726 19.7114C17.43 19.825 17.359 19.9173 17.2596 19.9882ZM8.95495 19.9882C8.86977 20.0592 8.78104 20.116 8.68877 20.1586C8.5965 20.2012 8.49357 20.2225 8.38001 20.2225C8.26644 20.2225 8.15287 20.1976 8.0393 20.1479C7.92573 20.0983 7.82636 20.0308 7.74118 19.9457C7.15915 19.321 6.72972 18.6858 6.45289 18.0398C6.17607 17.3939 6.03766 16.709 6.03766 15.985C6.03766 15.4597 6.11574 14.899 6.27189 14.3027C6.42805 13.7065 6.69777 12.9541 7.08107 12.0456C7.40758 11.2364 7.63471 10.6189 7.76248 10.193C7.89024 9.76709 7.95412 9.3696 7.95412 9.0005C7.95412 8.51784 7.84765 8.06001 7.63471 7.62703C7.42177 7.19405 7.08817 6.77172 6.63389 6.36004C6.53452 6.27486 6.46354 6.17904 6.42095 6.07257C6.37836 5.9661 6.35707 5.85608 6.35707 5.74251C6.35707 5.62894 6.37836 5.52247 6.42095 5.4231C6.46354 5.32373 6.52032 5.23145 6.5913 5.14628C6.67648 5.0611 6.7723 4.99722 6.87877 4.95463C6.98524 4.91204 7.09526 4.89075 7.20883 4.89075C7.3224 4.89075 7.42887 4.91204 7.52824 4.95463C7.62762 4.99722 7.71989 5.054 7.80507 5.12498C8.42969 5.70702 8.89461 6.3139 9.19983 6.94562C9.50504 7.57735 9.65765 8.25521 9.65765 8.97921C9.65765 9.47607 9.58667 9.99777 9.44471 10.5443C9.30275 11.0909 9.04722 11.8042 8.67812 12.6844C8.32322 13.5361 8.08189 14.1892 7.95412 14.6434C7.82636 15.0977 7.76248 15.5307 7.76248 15.9424C7.76248 16.4392 7.8654 16.9254 8.07124 17.401C8.27708 17.8766 8.59295 18.3415 9.01883 18.7958C9.08981 18.8809 9.14304 18.9732 9.17853 19.0726C9.21402 19.172 9.23177 19.2713 9.23177 19.3707C9.23177 19.4843 9.21047 19.5978 9.16789 19.7114C9.1253 19.825 9.05432 19.9173 8.95495 19.9882Z" fill="#1C1B1F"/>
</g>
</svg>
