<svg width="24" height="24" viewBox="0 0 24 24" fill="none" xmlns="http://www.w3.org/2000/svg">
<mask id="mask0_2009_614" style="mask-type:alpha" maskUnits="userSpaceOnUse" x="0" y="0" width="24" height="24">
<rect width="24" height="24" fill="#D9D9D9"/>
</mask>
<g mask="url(#mask0_2009_614)">
<path d="M12.4933 21.0851C10.2766 21.0851 8.38912 20.3184 6.83079 18.7851C5.27245 17.2518 4.49329 15.3851 4.49329 13.1851C4.49329 12.1351 4.69745 11.1309 5.10579 10.1726C5.51412 9.21428 6.09329 8.36845 6.84329 7.63511L12.4933 2.08511L18.1433 7.63511C18.8933 8.36845 19.4725 9.21428 19.8808 10.1726C20.2891 11.1309 20.4933 12.1351 20.4933 13.1851C20.4933 15.3851 19.7141 17.2518 18.1558 18.7851C16.5975 20.3184 14.71 21.0851 12.4933 21.0851ZM12.4933 19.0851C14.16 19.0851 15.5766 18.5143 16.7433 17.3726C17.91 16.2309 18.4933 14.8351 18.4933 13.1851C18.4933 12.4018 18.3433 11.6559 18.0433 10.9476C17.7433 10.2393 17.31 9.61845 16.7433 9.08511L12.4933 4.88511L8.24329 9.08511C7.67662 9.61845 7.24329 10.2393 6.94329 10.9476C6.64329 11.6559 6.49329 12.4018 6.49329 13.1851C6.49329 14.8351 7.07662 16.2309 8.24329 17.3726C9.40995 18.5143 10.8266 19.0851 12.4933 19.0851Z" fill="#1C1B1F"/>
<path d="M9.21444 11.8399L8.9133 11.9252C8.89436 11.875 8.86643 11.8262 8.8295 11.7789C8.79351 11.7306 8.74427 11.6908 8.68177 11.6595C8.61927 11.6283 8.53925 11.6127 8.44171 11.6127C8.30819 11.6127 8.19692 11.6434 8.10791 11.705C8.01984 11.7656 7.9758 11.8428 7.9758 11.9365C7.9758 12.0199 8.00611 12.0857 8.06671 12.134C8.12732 12.1823 8.22202 12.2225 8.3508 12.2547L8.67467 12.3342C8.86974 12.3816 9.0151 12.454 9.11075 12.5516C9.20639 12.6482 9.25421 12.7727 9.25421 12.9252C9.25421 13.0502 9.21823 13.1619 9.14626 13.2604C9.07524 13.3589 8.9758 13.4365 8.84796 13.4933C8.72012 13.5502 8.57145 13.5786 8.40194 13.5786C8.1794 13.5786 7.99522 13.5303 7.84938 13.4337C7.70355 13.3371 7.61122 13.196 7.57239 13.0104L7.89058 12.9308C7.92088 13.0483 7.97817 13.1363 8.06245 13.195C8.14768 13.2538 8.25895 13.2831 8.39626 13.2831C8.55251 13.2831 8.67656 13.25 8.76842 13.1837C8.86122 13.1164 8.90762 13.036 8.90762 12.9422C8.90762 12.8664 8.88111 12.803 8.82808 12.7519C8.77505 12.6998 8.69361 12.661 8.58376 12.6354L8.22012 12.5502C8.02031 12.5028 7.87353 12.4294 7.77978 12.33C7.68698 12.2296 7.64058 12.1041 7.64058 11.9536C7.64058 11.8305 7.67514 11.7216 7.74427 11.6269C7.81435 11.5322 7.90952 11.4578 8.02978 11.4039C8.15099 11.3499 8.2883 11.3229 8.44171 11.3229C8.65762 11.3229 8.82713 11.3702 8.95024 11.4649C9.07429 11.5596 9.16236 11.6846 9.21444 11.8399ZM10.6452 13.5786C10.4406 13.5786 10.2645 13.5303 10.1168 13.4337C9.96906 13.3371 9.85542 13.204 9.77587 13.0345C9.69633 12.865 9.65656 12.6714 9.65656 12.4536C9.65656 12.232 9.69728 12.0364 9.77872 11.8669C9.8611 11.6965 9.97569 11.5634 10.1225 11.4678C10.2702 11.3712 10.4425 11.3229 10.6395 11.3229C10.7929 11.3229 10.9312 11.3513 11.0543 11.4081C11.1774 11.4649 11.2782 11.5445 11.3568 11.6467C11.4354 11.749 11.4842 11.8683 11.5031 12.0047H11.1679C11.1424 11.9053 11.0855 11.8172 10.9975 11.7405C10.9103 11.6628 10.7929 11.624 10.6452 11.624C10.5145 11.624 10.3999 11.6581 10.3014 11.7263C10.2039 11.7935 10.1277 11.8887 10.0727 12.0118C10.0188 12.134 9.99178 12.2774 9.99178 12.4422C9.99178 12.6108 10.0183 12.7575 10.0713 12.8825C10.1253 13.0075 10.2011 13.1046 10.2986 13.1737C10.3971 13.2429 10.5126 13.2774 10.6452 13.2774C10.7323 13.2774 10.8114 13.2623 10.8824 13.232C10.9534 13.2017 11.0136 13.1581 11.0628 13.1013C11.112 13.0445 11.1471 12.9763 11.1679 12.8967H11.5031C11.4842 13.0255 11.4373 13.1415 11.3625 13.2448C11.2887 13.347 11.1906 13.4285 11.0685 13.4891C10.9473 13.5487 10.8062 13.5786 10.6452 13.5786ZM12.908 13.5786C12.6977 13.5786 12.5164 13.5322 12.3639 13.4394C12.2124 13.3456 12.0955 13.2149 12.0131 13.0473C11.9317 12.8788 11.8909 12.6827 11.8909 12.4592C11.8909 12.2358 11.9317 12.0388 12.0131 11.8683C12.0955 11.6969 12.2101 11.5634 12.3568 11.4678C12.5046 11.3712 12.6769 11.3229 12.8739 11.3229C12.9875 11.3229 13.0997 11.3418 13.2105 11.3797C13.3213 11.4176 13.4222 11.4791 13.5131 11.5644C13.604 11.6486 13.6764 11.7604 13.7304 11.8996C13.7844 12.0388 13.8114 12.2102 13.8114 12.4138V12.5558H12.1296V12.2661H13.4705C13.4705 12.143 13.4459 12.0331 13.3966 11.9365C13.3483 11.8399 13.2792 11.7637 13.1892 11.7078C13.1002 11.652 12.9951 11.624 12.8739 11.624C12.7404 11.624 12.6248 11.6572 12.5273 11.7235C12.4307 11.7888 12.3564 11.874 12.3043 11.9791C12.2522 12.0842 12.2262 12.1969 12.2262 12.3172V12.5104C12.2262 12.6752 12.2546 12.8148 12.3114 12.9294C12.3692 13.0431 12.4492 13.1297 12.5514 13.1894C12.6537 13.2481 12.7726 13.2774 12.908 13.2774C12.996 13.2774 13.0756 13.2651 13.1466 13.2405C13.2186 13.2149 13.2806 13.1771 13.3327 13.1269C13.3848 13.0757 13.425 13.0123 13.4534 12.9365L13.7773 13.0274C13.7432 13.1373 13.6859 13.2339 13.6054 13.3172C13.5249 13.3996 13.4255 13.464 13.3071 13.5104C13.1888 13.5558 13.0557 13.5786 12.908 13.5786ZM14.6566 12.2206V13.5331H14.3213V11.3513H14.6452V11.6922H14.6736C14.7247 11.5814 14.8024 11.4924 14.9066 11.4252C15.0107 11.357 15.1452 11.3229 15.31 11.3229C15.4577 11.3229 15.587 11.3532 15.6977 11.4138C15.8085 11.4735 15.8947 11.5644 15.9563 11.6865C16.0178 11.8077 16.0486 11.9611 16.0486 12.1467V13.5331H15.7134V12.1695C15.7134 11.9981 15.6689 11.8646 15.5799 11.7689C15.4908 11.6723 15.3687 11.624 15.2134 11.624C15.1064 11.624 15.0107 11.6472 14.9264 11.6936C14.8431 11.74 14.7773 11.8077 14.729 11.8967C14.6807 11.9858 14.6566 12.0937 14.6566 12.2206ZM17.61 11.3513V11.6354H16.4794V11.3513H17.61ZM16.8089 10.8286H17.1441V12.9081C17.1441 13.0028 17.1579 13.0738 17.1853 13.1212C17.2137 13.1676 17.2497 13.1988 17.2933 13.2149C17.3378 13.2301 17.3847 13.2377 17.4339 13.2377C17.4708 13.2377 17.5011 13.2358 17.5248 13.232C17.5485 13.2272 17.5674 13.2235 17.5816 13.2206L17.6498 13.5217C17.6271 13.5303 17.5954 13.5388 17.5546 13.5473C17.5139 13.5568 17.4623 13.5615 17.3998 13.5615C17.3051 13.5615 17.2123 13.5412 17.1214 13.5004C17.0314 13.4597 16.9566 13.3977 16.897 13.3144C16.8383 13.231 16.8089 13.1259 16.8089 12.999V10.8286Z" fill="black"/>
</g>
</svg>
