<?xml version="1.0" encoding="utf-8"?><svg viewBox="0 0 47 40" xmlns="http://www.w3.org/2000/svg" xmlns:xlink="http://www.w3.org/1999/xlink"><style>:root>svg{display:none}:root>svg:target{display:block}</style><svg fill="none" viewBox="0 0 24 24" id="candle" xmlns="http://www.w3.org/2000/svg"><mask id="aa" style="mask-type:alpha" maskUnits="userSpaceOnUse" x="0" y="0" width="24" height="24"><path fill="#D9D9D9" d="M0 0h24v24H0z"/></mask><g mask="url(#aa)"><path d="M11.3 10.347c-.713 0-1.413.1-2.1.302a6.605 6.605 0 0 0-1.906.904l.817 7.35h7.778l.855-7.778H16.2c-.493 0-.94-.036-1.342-.107-.402-.071-.952-.21-1.652-.418a5.421 5.421 0 0 0-.934-.194 8.15 8.15 0 0 0-.972-.059Zm-4.2-.486a9.338 9.338 0 0 1 2.051-.797 8.68 8.68 0 0 1 4.463.039 19.19 19.19 0 0 0 1.487.37c.344.064.71.096 1.099.096h.72l.33-3.11H6.75L7.1 9.86Zm.992 10.597c-.402 0-.749-.13-1.04-.388a1.468 1.468 0 0 1-.496-.992L5 4.903h14l-1.556 14.175a1.467 1.467 0 0 1-.495.992c-.292.259-.639.388-1.04.388H8.091Z" fill="#1C1B1F"/></g></svg><svg fill="none" viewBox="0 0 24 24" id="color" xmlns="http://www.w3.org/2000/svg"><mask id="ba" style="mask-type:alpha" maskUnits="userSpaceOnUse" x="0" y="0" width="24" height="24"><path fill="#D9D9D9" d="M0 0h24v24H0z"/></mask><g mask="url(#ba)"><path d="M12 21.5c-2.217 0-4.104-.767-5.662-2.3C4.779 17.667 4 15.8 4 13.6c0-1.05.204-2.054.612-3.012A7.784 7.784 0 0 1 6.35 8.05L12 2.5l5.65 5.55c.75.733 1.33 1.58 1.738 2.537.408.959.612 1.963.612 3.013 0 2.2-.78 4.067-2.337 5.6-1.559 1.533-3.446 2.3-5.663 2.3Z" fill="#1C1B1F"/><path d="M8.248 13.993a.944.944 0 0 1-.529-.145.944.944 0 0 1-.34-.399c-.08-.17-.12-.363-.12-.58 0-.222.041-.418.122-.587a.965.965 0 0 1 .344-.4.923.923 0 0 1 .517-.144c.154 0 .292.028.415.085a.795.795 0 0 1 .303.239.744.744 0 0 1 .146.357H8.77a.51.51 0 0 0-.523-.38.589.589 0 0 0-.344.102.666.666 0 0 0-.229.286 1.058 1.058 0 0 0-.08.43c0 .169.026.315.079.44.054.125.13.222.227.291.099.07.214.104.347.104a.599.599 0 0 0 .237-.045.49.49 0 0 0 .286-.335h.335a.777.777 0 0 1-.435.592.948.948 0 0 1-.423.09Zm2.234 0a.951.951 0 0 1-.518-.14.955.955 0 0 1-.347-.394 1.331 1.331 0 0 1-.123-.59c0-.228.04-.426.123-.596a.954.954 0 0 1 .347-.395.952.952 0 0 1 .518-.14c.197 0 .37.047.517.14a.94.94 0 0 1 .347.395c.083.17.125.368.125.595 0 .226-.042.423-.125.591a.942.942 0 0 1-.347.394.944.944 0 0 1-.517.14Zm0-.3c.15 0 .273-.04.37-.116a.678.678 0 0 0 .214-.302c.046-.125.07-.26.07-.407a1.17 1.17 0 0 0-.07-.407.686.686 0 0 0-.214-.306.57.57 0 0 0-.37-.116.57.57 0 0 0-.37.116.687.687 0 0 0-.214.306 1.17 1.17 0 0 0-.07.407c0 .146.024.282.07.407a.679.679 0 0 0 .215.302c.097.077.22.115.37.115Zm1.836-2.654v2.909h-.335v-2.91h.335Zm1.5 2.954a.951.951 0 0 1-.518-.14.956.956 0 0 1-.347-.394 1.332 1.332 0 0 1-.123-.59c0-.228.04-.426.123-.596a.955.955 0 0 1 .347-.395.952.952 0 0 1 .518-.14c.197 0 .37.047.517.14a.94.94 0 0 1 .347.395c.083.17.125.368.125.595 0 .226-.042.423-.125.591a.942.942 0 0 1-.347.394.943.943 0 0 1-.517.14Zm0-.3c.15 0 .273-.04.37-.116a.678.678 0 0 0 .214-.302c.046-.125.07-.26.07-.407a1.17 1.17 0 0 0-.07-.407.686.686 0 0 0-.214-.306.57.57 0 0 0-.37-.116.57.57 0 0 0-.37.116.686.686 0 0 0-.214.306 1.17 1.17 0 0 0-.07.407c0 .146.024.282.07.407a.678.678 0 0 0 .215.302c.097.077.22.115.37.115Zm1.5.255v-2.182h.324v.33h.023a.525.525 0 0 1 .216-.263.635.635 0 0 1 .352-.101 3.957 3.957 0 0 1 .177.006v.34a.972.972 0 0 0-.079-.012.771.771 0 0 0-.126-.01c-.106 0-.2.022-.284.067a.49.49 0 0 0-.267.445v1.38h-.335Z" fill="#fff"/></g></svg><svg fill="none" viewBox="0 0 24 24" id="delete" xmlns="http://www.w3.org/2000/svg"><mask id="ca" style="mask-type:alpha" maskUnits="userSpaceOnUse" x="0" y="0" width="24" height="24"><path fill="#D9D9D9" d="M0 0h24v24H0z"/></mask><g mask="url(#ca)"><path d="M7 21c-.55 0-1.02-.196-1.412-.587A1.926 1.926 0 0 1 5 19V6H4V4h5V3h6v1h5v2h-1v13c0 .55-.196 1.02-.587 1.413A1.926 1.926 0 0 1 17 21H7ZM17 6H7v13h10V6ZM9 17h2V8H9v9Zm4 0h2V8h-2v9Z" fill="#FF070B"/></g></svg><svg fill="none" viewBox="0 0 24 24" id="heat" xmlns="http://www.w3.org/2000/svg"><mask id="da" style="mask-type:alpha" maskUnits="userSpaceOnUse" x="0" y="0" width="24" height="24"><path fill="#D9D9D9" d="M0 0h24v24H0z"/></mask><g mask="url(#da)"><path d="M13.107 19.988a1.205 1.205 0 0 1-.266.17.728.728 0 0 1-.309.064.844.844 0 0 1-.34-.074.964.964 0 0 1-.299-.202c-.582-.625-1.01-1.264-1.288-1.917a5.238 5.238 0 0 1-.415-2.065c0-.526.078-1.08.234-1.661.156-.582.426-1.335.81-2.257.326-.81.553-1.43.68-1.864a4.27 4.27 0 0 0 .193-1.203c0-.482-.107-.933-.32-1.352-.213-.419-.546-.841-1-1.267a.965.965 0 0 1-.203-.298.845.845 0 0 1-.075-.34c0-.114.022-.217.064-.31.043-.092.1-.18.17-.266a.85.85 0 0 1 .618-.255c.114 0 .22.021.32.064.099.042.191.099.276.17.625.582 1.09 1.192 1.395 1.831.305.64.458 1.313.458 2.023 0 .497-.075 1.019-.224 1.565-.149.547-.408 1.26-.777 2.14-.355.852-.596 1.505-.724 1.96a4.798 4.798 0 0 0-.192 1.298c0 .497.103.976.31 1.438.205.461.521.926.947 1.395.07.085.128.177.17.276.043.1.064.206.064.32a.88.88 0 0 1-.064.33.741.741 0 0 1-.213.287Zm4.153 0a1.204 1.204 0 0 1-.267.17.728.728 0 0 1-.308.064.844.844 0 0 1-.341-.074.962.962 0 0 1-.298-.202c-.582-.625-1.012-1.26-1.288-1.906a5.161 5.161 0 0 1-.416-2.055c0-.525.078-1.086.235-1.682.156-.597.425-1.349.809-2.257.326-.81.553-1.427.681-1.853.128-.426.192-.823.192-1.192 0-.483-.107-.941-.32-1.374-.213-.433-.546-.855-1-1.267a.85.85 0 0 1-.256-.617.854.854 0 0 1 .213-.575.963.963 0 0 1 .298-.203.844.844 0 0 1 .34-.074c.114 0 .217.021.31.064.092.042.18.099.266.17.624.582 1.09 1.192 1.395 1.831.305.64.457 1.313.457 2.023 0 .497-.074 1.019-.223 1.565-.15.547-.408 1.267-.777 2.162-.355.851-.597 1.504-.724 1.959-.128.454-.192.88-.192 1.277 0 .497.106.983.32 1.459.212.476.532.94.957 1.395a.905.905 0 0 1 .15.915.586.586 0 0 1-.213.277Zm-8.305 0a1.205 1.205 0 0 1-.266.17.728.728 0 0 1-.309.064.844.844 0 0 1-.34-.074.963.963 0 0 1-.299-.202c-.582-.625-1.011-1.26-1.288-1.906a5.161 5.161 0 0 1-.415-2.055c0-.525.078-1.086.234-1.682.156-.597.426-1.349.81-2.257.326-.81.553-1.427.68-1.853.128-.426.192-.823.192-1.192 0-.483-.106-.941-.32-1.374-.212-.433-.546-.855-1-1.267a.742.742 0 0 1-.213-.287.88.88 0 0 1-.064-.33c0-.114.021-.22.064-.32s.1-.192.17-.277a.85.85 0 0 1 .618-.255c.113 0 .22.021.32.064.099.042.19.099.276.17.625.582 1.09 1.189 1.395 1.82.305.632.458 1.31.458 2.034 0 .497-.071 1.019-.213 1.565-.142.547-.398 1.26-.767 2.14-.355.852-.596 1.505-.724 1.96a4.8 4.8 0 0 0-.192 1.298c0 .497.103.983.31 1.459.205.476.521.94.947 1.395a.905.905 0 0 1 .149.915.586.586 0 0 1-.213.277Z" fill="#1C1B1F"/></g></svg><svg fill="none" viewBox="0 0 20 20" id="instagram" xmlns="http://www.w3.org/2000/svg"><path d="M15.34 3.46a1.2 1.2 0 1 0 0 2.4 1.2 1.2 0 0 0 0-2.4Zm4.6 2.42a7.588 7.588 0 0 0-.46-2.43 4.94 4.94 0 0 0-1.16-1.77A4.7 4.7 0 0 0 16.55.53a7.3 7.3 0 0 0-2.43-.47C13.06 0 12.72 0 10 0S6.94 0 5.88.06a7.3 7.3 0 0 0-2.43.47 4.78 4.78 0 0 0-1.77 1.15A4.7 4.7 0 0 0 .53 3.45a7.3 7.3 0 0 0-.47 2.43C0 6.94 0 7.28 0 10s0 3.06.06 4.12a7.3 7.3 0 0 0 .47 2.43 4.7 4.7 0 0 0 1.15 1.77 4.78 4.78 0 0 0 1.77 1.15 7.3 7.3 0 0 0 2.43.47C6.94 20 7.28 20 10 20s3.06 0 4.12-.06a7.3 7.3 0 0 0 2.43-.47 4.7 4.7 0 0 0 1.77-1.15 4.85 4.85 0 0 0 1.16-1.77c.285-.78.44-1.6.46-2.43 0-1.06.06-1.4.06-4.12s0-3.06-.06-4.12ZM18.14 14a5.61 5.61 0 0 1-.34 1.86 3.06 3.06 0 0 1-.75 1.15c-.324.33-.717.586-1.15.75a5.61 5.61 0 0 1-1.86.34c-1 .05-1.37.06-4 .06s-3 0-4-.06a5.73 5.73 0 0 1-1.94-.3 3.27 3.27 0 0 1-1.1-.75 3 3 0 0 1-.74-1.15 5.54 5.54 0 0 1-.4-1.9c0-1-.06-1.37-.06-4s0-3 .06-4a5.54 5.54 0 0 1 .35-1.9A3 3 0 0 1 3 3a3.14 3.14 0 0 1 1.1-.8A5.73 5.73 0 0 1 6 1.86c1 0 1.37-.06 4-.06s3 0 4 .06a5.61 5.61 0 0 1 1.86.34 3.06 3.06 0 0 1 1.19.8c.328.307.584.683.75 1.1.222.609.337 1.252.34 1.9.05 1 .06 1.37.06 4s-.01 3-.06 4ZM10 4.87A5.13 5.13 0 1 0 15.14 10 5.12 5.12 0 0 0 10 4.87Zm0 8.46a3.33 3.33 0 1 1 0-6.66 3.33 3.33 0 0 1 0 6.66Z" fill="#F5EFDB"/></svg><svg fill="none" viewBox="0 0 47 40" id="quote" xmlns="http://www.w3.org/2000/svg"><path d="M12.914 22.857c2.402 0 4.304.802 5.706 2.406 1.501 1.504 2.252 3.509 2.252 6.015 0 2.707-.9 4.862-2.703 6.466C16.468 39.248 14.115 40 11.112 40c-3.504 0-6.257-1.353-8.259-4.06C.951 33.233 0 29.373 0 24.36c0-4.51 1.001-8.67 3.003-12.48C5.005 7.97 8.01 4.06 12.013.15c.1-.1.25-.15.45-.15.3 0 .55.15.751.451.2.3.2.551 0 .752C8.31 6.216 5.856 12.13 5.856 18.947c0 2.807.5 4.863 1.502 6.166.9-1.504 2.753-2.256 5.556-2.256Zm26.128 0c2.402 0 4.304.802 5.706 2.406C46.249 26.767 47 28.772 47 31.278c0 2.707-.901 4.862-2.703 6.466C42.595 39.248 40.243 40 37.24 40c-3.504 0-6.257-1.353-8.26-4.06-1.901-2.707-2.852-6.567-2.852-11.58 0-4.51 1-8.67 3.003-12.48 2.002-3.91 5.005-7.82 9.01-11.73.1-.1.25-.15.45-.15.3 0 .55.15.75.451.201.3.201.551 0 .752-4.904 5.013-7.357 10.927-7.357 17.744 0 2.807.5 4.863 1.502 6.166.9-1.504 2.753-2.256 5.556-2.256Z" fill="#fff"/></svg><svg fill="none" viewBox="0 0 24 24" id="scent" xmlns="http://www.w3.org/2000/svg"><mask id="ga" style="mask-type:alpha" maskUnits="userSpaceOnUse" x="0" y="0" width="24" height="24"><path fill="#D9D9D9" d="M0 0h24v24H0z"/></mask><g mask="url(#ga)"><path d="M12.493 21.085c-2.216 0-4.104-.767-5.662-2.3-1.559-1.533-2.338-3.4-2.338-5.6 0-1.05.204-2.054.613-3.012a7.784 7.784 0 0 1 1.737-2.538l5.65-5.55 5.65 5.55c.75.733 1.33 1.58 1.738 2.538.408.958.612 1.962.612 3.012 0 2.2-.779 4.067-2.337 5.6-1.558 1.533-3.446 2.3-5.663 2.3Zm0-2c1.667 0 3.084-.57 4.25-1.712 1.167-1.142 1.75-2.538 1.75-4.188 0-.783-.15-1.53-.45-2.237a5.453 5.453 0 0 0-1.3-1.863l-4.25-4.2-4.25 4.2c-.566.533-1 1.154-1.3 1.863-.3.708-.45 1.454-.45 2.237 0 1.65.584 3.046 1.75 4.188 1.167 1.141 2.584 1.712 4.25 1.712Z" fill="#1C1B1F"/><path d="m9.214 11.84-.3.085a.558.558 0 0 0-.085-.146.407.407 0 0 0-.147-.12.537.537 0 0 0-.24-.046.573.573 0 0 0-.334.092c-.088.06-.132.138-.132.232 0 .083.03.149.09.197a.76.76 0 0 0 .285.12l.324.08c.195.048.34.12.436.218a.508.508 0 0 1 .143.373.554.554 0 0 1-.108.335.716.716 0 0 1-.298.233 1.088 1.088 0 0 1-.446.086.98.98 0 0 1-.553-.145.643.643 0 0 1-.277-.424l.319-.08c.03.118.087.206.171.265a.576.576 0 0 0 .334.088c.157 0 .28-.033.372-.1.093-.067.14-.147.14-.24a.254.254 0 0 0-.08-.191.508.508 0 0 0-.244-.117l-.364-.085c-.2-.047-.346-.12-.44-.22a.533.533 0 0 1-.14-.376.54.54 0 0 1 .104-.327.705.705 0 0 1 .286-.223c.121-.054.258-.081.412-.081.216 0 .385.047.508.142.124.095.212.22.264.375Zm1.431 1.739a.944.944 0 0 1-.528-.145.944.944 0 0 1-.341-.4c-.08-.169-.12-.363-.12-.58 0-.222.041-.418.123-.587a.965.965 0 0 1 .344-.4.923.923 0 0 1 .517-.144c.153 0 .291.028.414.085a.795.795 0 0 1 .303.239.744.744 0 0 1 .146.358h-.335a.51.51 0 0 0-.523-.38.589.589 0 0 0-.344.101.667.667 0 0 0-.228.286 1.06 1.06 0 0 0-.081.43c0 .169.026.316.08.44.053.126.13.223.227.292.098.069.214.103.346.103a.599.599 0 0 0 .237-.045.49.49 0 0 0 .286-.335h.335a.777.777 0 0 1-.434.592.948.948 0 0 1-.424.09Zm2.263 0c-.21 0-.392-.047-.544-.14a.935.935 0 0 1-.35-.392 1.337 1.337 0 0 1-.123-.588c0-.223.04-.42.122-.59a.964.964 0 0 1 .344-.401.924.924 0 0 1 .517-.145c.114 0 .226.019.336.057.111.038.212.1.303.184.091.085.163.196.217.336.054.139.081.31.081.514v.142H12.13v-.29h1.34a.715.715 0 0 0-.073-.33.557.557 0 0 0-.523-.312.602.602 0 0 0-.347.1.654.654 0 0 0-.223.255.75.75 0 0 0-.078.338v.193c0 .165.029.305.085.42.058.113.138.2.24.26a.704.704 0 0 0 .357.087.726.726 0 0 0 .239-.036.511.511 0 0 0 .186-.114.516.516 0 0 0 .12-.19l.324.09a.718.718 0 0 1-.172.29.837.837 0 0 1-.298.193 1.107 1.107 0 0 1-.399.069Zm1.749-1.358v1.312h-.336v-2.182h.324v.341h.029c.05-.11.128-.2.233-.267a.724.724 0 0 1 .403-.102c.148 0 .277.03.388.09.11.06.197.151.258.274.062.12.093.274.093.46v1.386h-.336V12.17c0-.17-.044-.304-.133-.4a.474.474 0 0 0-.367-.145.585.585 0 0 0-.287.07.498.498 0 0 0-.197.203.671.671 0 0 0-.072.324Zm2.953-.87v.284h-1.13v-.284h1.13Zm-.801-.522h.335v2.08c0 .094.014.165.041.212a.213.213 0 0 0 .108.094.432.432 0 0 0 .14.023.593.593 0 0 0 .092-.006l.057-.011.068.3a.698.698 0 0 1-.25.04.673.673 0 0 1-.279-.06.552.552 0 0 1-.224-.187.535.535 0 0 1-.088-.315v-2.17Z" fill="#000"/></g></svg><svg fill="none" viewBox="0 0 14 9" id="select-arrow" xmlns="http://www.w3.org/2000/svg"><path d="m7.576 8.488 5.433-5.922a1.054 1.054 0 0 0 0-1.455c-.388-.415-.97-.415-1.358 0L6.8 6.202l-4.85-5.09C1.56.695.98.695.59 1.111a.976.976 0 0 0-.291.727c0 .311.097.52.291.727l5.433 5.922c.485.416 1.067.416 1.552 0-.097 0-.097 0 0 0Z" fill="#AAA"/></svg></svg>